# xmcd
#
# Track frame offsets: 
#        150
#        16365
#        33129
#        61122
#        99176
#        116251
#        135140
#        170591
#        189011
#        207038
#
# Disc length: 3114 seconds
#
# Revision: 0
# Processed by: cddbd v1.5.2PL0 Copyright (c) Steve Scherf et al.
# Submitted via: ExactAudioCopy v1.0b3
#
DISCID=670c280a
DTITLE=Sweet Papa Dave - Sweet Papa Dave and The Private Reserve
DYEAR=2001
DGENRE=Blues
TTITLE0=Just A Little
TTITLE1=She's Into Somethin'
TTITLE2=Big Fat Mama
TTITLE3=Ecstacy
TTITLE4=Parte'
TTITLE5=Amy's Cafe
TTITLE6=Bedtime Toy
TTITLE7=Talk To Your Daughter
TTITLE8=High Heeled Sneakers
TTITLE9=Hip Shakin' Mamma
EXTD=
EXTT0=
EXTT1=
EXTT2=
EXTT3=
EXTT4=
EXTT5=
EXTT6=
EXTT7=
EXTT8=
EXTT9=
PLAYORDER=
